<svg width="100%" height="100%" xmlns="http://www.w3.org/2000/svg">
  <defs>
    <pattern id="topo" x="0" y="0" width="100" height="100" patternUnits="userSpaceOnUse">
      <path d="M0 0h100v100H0z" fill="none"/>
      
      <!-- Topographic Wavy Lines -->
      <path d="M10,10 Q30,5 50,10 T90,10" fill="none" stroke="#10b981" stroke-width="0.5" stroke-opacity="0.4"/>
      <path d="M10,25 Q30,20 50,25 T90,25" fill="none" stroke="#10b981" stroke-width="0.5" stroke-opacity="0.4"/>
      <path d="M10,40 Q30,35 50,40 T90,40" fill="none" stroke="#10b981" stroke-width="0.5" stroke-opacity="0.4"/>
      <path d="M10,55 Q30,50 50,55 T90,55" fill="none" stroke="#10b981" stroke-width="0.5" stroke-opacity="0.4"/>
      <path d="M10,70 Q30,65 50,70 T90,70" fill="none" stroke="#10b981" stroke-width="0.5" stroke-opacity="0.4"/>
      <path d="M10,85 Q30,80 50,85 T90,85" fill="none" stroke="#10b981" stroke-width="0.5" stroke-opacity="0.4"/>
      
    </pattern>
  </defs>
  <rect width="100%" height="100%" fill="url(#topo)"/>
</svg>
